<svg width="1648" height="264" viewBox="0 0 1648 264" fill="none" xmlns="http://www.w3.org/2000/svg">
<rect width="1648" height="264" fill="#0A0A0A"/>
<path fill-rule="evenodd" clip-rule="evenodd" d="M1538 132C1538 125.096 1543.6 119.5 1550.5 119.5C1557.4 119.5 1563 125.096 1563 132C1563 138.904 1557.4 144.5 1550.5 144.5C1543.6 144.5 1538 138.904 1538 132Z" fill="#1ABCFE"/>
<path fill-rule="evenodd" clip-rule="evenodd" d="M1513 157C1513 150.096 1518.6 144.5 1525.5 144.5H1538V157C1538 163.904 1532.4 169.5 1525.5 169.5C1518.6 169.5 1513 163.904 1513 157Z" fill="#0ACF83"/>
<path fill-rule="evenodd" clip-rule="evenodd" d="M1538 94.5V119.5H1550.5C1557.4 119.5 1563 113.904 1563 107C1563 100.096 1557.4 94.5 1550.5 94.5H1538Z" fill="#FF7262"/>
<path fill-rule="evenodd" clip-rule="evenodd" d="M1513 107C1513 113.904 1518.6 119.5 1525.5 119.5H1538V94.5H1525.5C1518.6 94.5 1513 100.096 1513 107Z" fill="#F24E1E"/>
<path fill-rule="evenodd" clip-rule="evenodd" d="M1513 132C1513 138.904 1518.6 144.5 1525.5 144.5H1538V119.5H1525.5C1518.6 119.5 1513 125.096 1513 132Z" fill="#A259FF"/>
<path d="M1356.08 136.416C1353.64 133.977 1353.64 130.023 1356.08 127.584L1393.58 90.0792C1396.02 87.6402 1399.98 87.6403 1402.42 90.0793L1439.92 127.584C1442.36 130.023 1442.36 133.977 1439.92 136.416L1402.42 173.921C1399.98 176.36 1396.02 176.36 1393.58 173.921L1356.08 136.416Z" fill="#EE513B"/>
<path d="M1385.97 97.8176L1382.17 101.616L1391.98 111.425C1391.58 112.276 1391.36 113.225 1391.36 114.227C1391.36 117.069 1393.14 119.494 1395.66 120.442V144.437C1393.14 145.385 1391.36 147.81 1391.36 150.652C1391.36 154.32 1394.33 157.293 1398 157.293C1401.67 157.293 1404.64 154.32 1404.64 150.652C1404.64 148.075 1403.17 145.841 1401.03 144.74V120.474L1410.4 129.851C1410.03 130.685 1409.82 131.611 1409.82 132.586C1409.82 136.253 1412.79 139.227 1416.46 139.227C1420.12 139.227 1423.1 136.253 1423.1 132.586C1423.1 128.918 1420.12 125.945 1416.46 125.945C1415.74 125.945 1415.06 126.058 1414.41 126.265L1404.34 116.195C1404.54 115.573 1404.64 114.912 1404.64 114.227C1404.64 110.559 1401.67 107.586 1398 107.586C1397.31 107.586 1396.65 107.69 1396.03 107.883L1385.97 97.8176Z" fill="white"/>
<path d="M218.75 169.5L212.5 91.375H287.5L281.25 169.5L250 178.875L218.75 169.5Z" fill="#1172B8"/>
<path d="M281.25 97.625H250V174.188L275 166.375L281.25 97.625Z" fill="#33AADD"/>
<path d="M260.938 136.688H229.688L228.125 125.75L253.125 117.938H228.125L226.562 108.562H275L273.438 119.5L253.125 127.312H271.875L268.75 157L250 163.25L231.25 157L229.688 141.375H239.063L240.625 149.188L250 152.312L259.375 149.188L260.938 136.688Z" fill="white"/>
<path d="M78.75 169.5L72.5 91.375H147.5L141.25 169.5L110 178.875L78.75 169.5Z" fill="#E44D26"/>
<path d="M141.25 97.625H110V174.188L135 166.375L141.25 97.625Z" fill="#F16529"/>
<path d="M89.6875 136.688L86.5625 107H135L133.438 116.375H95.9375L97.5 127.312H131.875L128.75 157L110 163.25L91.25 157L89.6875 141.375H99.0625L100.625 149.188L110 152.312L119.375 149.188L120.938 136.688H89.6875Z" fill="white"/>
<rect x="346.25" y="88.25" width="87.5" height="87.5" fill="#FFCA28"/>
<path d="M399.375 161.024L405.817 156.761C406.322 158.347 409.519 162.114 413.558 162.114C417.596 162.114 419.471 159.909 419.471 158.446C419.471 154.461 415.347 153.056 413.367 152.382C413.044 152.272 412.778 152.181 412.596 152.102C412.503 152.061 412.362 152.007 412.181 151.938C409.978 151.096 401.851 147.991 401.851 138.991C401.851 129.078 411.418 127.937 413.582 127.937C414.997 127.937 421.803 128.111 425.192 134.48L418.942 138.842C417.572 136.067 415.296 135.15 413.894 135.15C410.433 135.15 409.712 137.687 409.712 138.842C409.712 142.084 413.472 143.536 416.648 144.763C417.479 145.084 418.269 145.39 418.942 145.707C422.404 147.343 427.5 150.02 427.5 158.446C427.5 162.667 423.96 169.5 415.048 169.5C403.077 169.5 399.904 162.313 399.375 161.024Z" fill="#3E3E3E"/>
<path d="M368.125 161.87L374.84 157.61C375.366 159.195 377.41 162.118 380.377 162.118C383.343 162.118 384.861 159.071 384.861 157.61V128.875H393.119V157.61C393.253 161.573 391.055 169.5 381.354 169.5C372.434 169.5 368.726 164.199 368.125 161.87Z" fill="#3E3E3E"/>
<path d="M533.664 89.1835C531.446 87.936 528.554 87.9416 526.334 89.1835C515.215 95.3196 504.096 101.458 492.975 107.591C490.812 108.729 489.352 111.053 489.375 113.465V150.54C489.36 152.999 490.894 155.345 493.114 156.468C496.308 158.168 499.412 160.039 502.664 161.626C506.42 163.472 511.12 163.88 514.922 161.955C518.009 160.359 519.38 156.811 519.376 153.55C519.401 141.314 519.38 129.078 519.386 116.843C519.459 116.299 519.051 115.718 518.458 115.731C517.037 115.708 515.614 115.718 514.193 115.727C513.656 115.676 513.132 116.122 513.172 116.662C513.153 128.819 513.176 140.979 513.161 153.138C513.192 154.82 512.056 156.436 510.435 157.004C506.691 158.317 496.006 151.379 496.006 151.379C495.614 151.197 495.365 150.772 495.403 150.35C495.403 138.118 495.405 125.885 495.403 113.655C495.35 113.162 495.653 112.718 496.106 112.517C507.189 106.417 518.265 100.302 529.347 94.198C529.732 93.9411 530.269 93.9419 530.653 94.1999C541.735 100.302 552.813 106.411 563.898 112.512C564.352 112.713 564.643 113.164 564.597 113.655C564.595 125.885 564.6 138.118 564.593 150.348C564.626 150.781 564.402 151.2 563.998 151.39C553.019 157.457 541.915 163.328 531.036 169.571C530.561 169.843 530.024 170.152 529.492 169.852C526.631 168.269 523.804 166.625 520.953 165.028C520.643 164.834 520.248 164.751 519.925 164.967C518.646 165.641 517.444 166.187 515.976 166.768C513.914 167.584 514.243 167.918 516.103 169.001C519.438 170.889 522.778 172.768 526.112 174.658C528.308 176.028 531.257 176.125 533.523 174.859C544.644 168.731 555.761 162.595 566.884 156.467C569.098 155.338 570.64 153.001 570.625 150.54V113.465C570.646 111.102 569.242 108.82 567.144 107.664C555.986 101.498 544.823 95.3458 533.664 89.1835Z" fill="#8CC84B"/>
<path d="M550.443 117.02C546.079 114.684 540.886 114.56 536.036 114.865C532.532 115.211 528.847 116.178 526.294 118.69C523.675 121.215 523.105 125.293 524.349 128.589C525.24 130.918 527.484 132.433 529.804 133.234C532.792 134.289 535.931 134.616 539.071 134.942C541.934 135.239 544.799 135.537 547.552 136.388C548.676 136.761 549.985 137.331 550.33 138.554C550.648 140.003 550.299 141.687 549.123 142.693C545.386 145.651 534.993 145.197 531.302 142.87C529.809 141.878 529.166 140.123 528.905 138.45C528.876 137.929 528.456 137.451 527.89 137.491C526.473 137.474 525.056 137.478 523.639 137.489C523.144 137.447 522.63 137.799 522.603 138.304C522.312 145.965 529.348 149.305 535.95 150.041C539.721 150.4 543.576 150.379 547.29 149.57C550.082 148.934 552.881 147.764 554.803 145.613C557.173 143 557.639 139.109 556.576 135.854C555.763 133.425 553.441 131.867 551.067 131.065C547.839 129.958 544.014 129.363 541.09 129.085C536.84 128.68 531.79 128.845 530.587 126.053C530.108 124.591 530.516 122.775 531.86 121.876C535.415 119.464 542.651 119.784 546.333 121.586C548.024 122.433 549.003 124.171 549.408 125.927C549.482 126.442 549.829 126.98 550.426 126.958C551.834 126.986 553.241 126.965 554.648 126.967C555.132 127.001 555.661 126.728 555.756 126.233C555.696 122.564 553.823 118.809 550.443 117.02Z" fill="#8CC84B"/>
<path d="M678.372 131.925C678.372 127.442 674.624 123.808 670 123.808C665.377 123.808 661.628 127.442 661.628 131.925C661.628 136.408 665.377 140.042 670 140.042C674.624 140.042 678.372 136.408 678.372 131.925Z" fill="#53C1DE"/>
<path fill-rule="evenodd" clip-rule="evenodd" d="M697.189 116.855C698.957 109.89 701.179 96.9734 693.345 92.5943C685.548 88.2342 675.401 96.5888 670.044 101.604C664.701 96.6388 654.27 88.3199 646.443 92.7129C638.648 97.0876 641.052 109.79 642.859 116.799C635.588 118.801 623.125 123.114 623.125 131.925C623.125 140.711 635.576 145.402 642.803 147.403C640.989 154.451 638.706 166.972 646.51 171.336C654.366 175.729 664.766 167.608 670.173 162.538C675.565 167.582 685.614 175.756 693.413 171.379C701.236 166.988 699.199 154.245 697.392 147.195C704.398 145.191 716.875 140.601 716.875 131.925C716.875 123.198 704.345 118.851 697.189 116.855ZM696.301 143.459C695.114 139.817 693.513 135.945 691.553 131.944C693.423 128.038 694.963 124.215 696.116 120.597C701.362 122.071 712.87 125.442 712.87 131.925C712.87 138.469 701.827 141.871 696.301 143.459ZM691.406 168.019C685.588 171.284 676.944 163.468 672.962 159.753C675.604 156.951 678.244 153.694 680.82 150.078C685.353 149.688 689.634 149.051 693.518 148.18C694.789 153.167 697.251 164.738 691.406 168.019ZM648.511 167.972C642.692 164.719 645.352 153.546 646.686 148.354C650.526 149.178 654.777 149.77 659.32 150.127C661.914 153.666 664.63 156.919 667.367 159.768C663.985 162.94 654.358 171.241 648.511 167.972ZM627.13 131.925C627.13 125.356 638.569 122.01 643.935 120.539C645.108 124.239 646.647 128.107 648.504 132.019C646.623 135.989 645.062 139.919 643.878 143.662C638.762 142.243 627.13 138.497 627.13 131.925ZM648.449 96.0736C654.292 92.7943 663.358 100.781 667.237 104.375C664.514 107.211 661.822 110.439 659.251 113.958C654.842 114.354 650.621 114.99 646.741 115.843C645.285 110.19 642.612 99.3493 648.449 96.0736ZM683.685 118.178C686.677 118.544 689.542 119.031 692.233 119.627C691.426 122.138 690.419 124.763 689.233 127.454C687.514 124.291 685.668 121.193 683.685 118.178ZM670.045 107.15C671.892 109.091 673.742 111.257 675.562 113.608C671.87 113.439 668.173 113.438 664.481 113.605C666.303 111.277 668.169 109.113 670.045 107.15ZM650.802 127.451C649.635 124.769 648.637 122.132 647.823 119.586C650.497 119.006 653.35 118.531 656.322 118.171C654.333 121.179 652.491 124.276 650.802 127.451ZM656.407 145.955C653.337 145.623 650.441 145.173 647.767 144.609C648.595 142.017 649.615 139.323 650.806 136.584C652.519 139.792 654.389 142.919 656.407 145.955ZM670.156 156.973C668.257 154.987 666.364 152.791 664.515 150.428C668.228 150.57 671.947 150.57 675.659 150.409C673.834 152.815 671.99 155.015 670.156 156.973ZM689.271 136.444C690.524 139.214 691.58 141.893 692.419 144.44C689.701 145.042 686.766 145.526 683.674 145.886C685.672 142.815 687.546 139.668 689.271 136.444ZM678.585 146.356C672.907 146.75 667.192 146.746 661.512 146.389C658.284 141.817 655.411 137.009 652.93 132.018C655.399 127.037 658.251 122.239 661.464 117.674C667.149 117.258 672.868 117.257 678.553 117.677C681.738 122.241 684.586 127.027 687.111 131.963C684.616 136.941 681.749 141.749 678.585 146.356ZM691.345 95.9581C697.189 99.2267 694.588 110.835 693.311 115.883C689.422 115.013 685.198 114.365 680.776 113.963C678.2 110.406 675.531 107.172 672.851 104.373C676.78 100.701 685.557 92.7215 691.345 95.9581Z" fill="#53C1DE"/>
<path d="M1208 113.25V144.5H1236.12V150.75H1258V144.5H1308V113.25H1208Z" fill="#CB3837"/>
<path d="M1225.07 119.5H1214.25V138.25H1225.07V124.535H1230.57V138.25H1236.08V119.5H1225.07ZM1241.58 119.5V144.5H1252.59V138.25H1263.41V119.5H1241.58ZM1257.91 133.215H1252.59V124.535H1257.91V133.215ZM1279.73 119.5H1268.91V138.25H1279.73V124.535H1285.24V138.25H1290.74V124.535H1296.25V138.25H1301.75V119.5H1279.73Z" fill="white"/>
<path d="M987.5 94.5H912.5V169.5H987.5V94.5Z" fill="#1976D2"/>
<path d="M957.271 127.833H929.64V134.633H939.55V165.333H947.402V134.633H957.271V127.833Z" fill="white"/>
<path d="M981.654 136.342C981.654 136.342 977.931 133.858 973.723 133.858C969.515 133.858 968 135.858 968 137.996C968 143.513 983.377 142.96 983.377 154.063C983.377 171.165 959.931 163.579 959.931 163.579V155.375C959.931 155.375 964.415 158.754 969.792 158.754C975.169 158.754 974.965 155.238 974.965 154.754C974.965 149.652 959.725 149.652 959.725 138.342C959.725 122.965 981.929 129.031 981.929 129.031L981.654 136.342Z" fill="white"/>
<path d="M828.084 149.363C831.543 149.011 834.168 146.079 834.049 142.56C833.93 139.041 830.947 136.226 827.368 136.226H827.13C823.431 136.343 820.568 139.393 820.687 143.029C820.807 144.788 821.522 146.313 822.596 147.369C818.54 155.227 812.336 160.974 803.031 165.783C796.708 169.068 790.146 170.241 783.585 169.42C778.216 168.716 774.041 166.37 771.416 162.499C767.598 156.752 767.24 150.535 770.462 144.319C772.729 139.862 776.307 136.578 778.574 134.936C778.097 133.411 777.381 130.83 777.023 128.954C759.724 141.27 761.514 157.925 766.763 165.783C770.7 171.648 778.693 175.284 787.522 175.284C789.907 175.284 792.293 175.05 794.68 174.463C809.95 171.531 821.522 162.617 828.084 149.363V149.363ZM849.081 134.819C840.014 124.379 826.652 118.632 811.382 118.632H809.473C808.399 116.521 806.132 115.113 803.627 115.113H803.388C799.69 115.231 796.827 118.28 796.946 121.916C797.066 125.435 800.048 128.25 803.627 128.25H803.866C806.49 128.133 808.757 126.491 809.711 124.262H811.859C820.926 124.262 829.515 126.842 837.27 131.886C843.235 135.757 847.53 140.8 849.916 146.899C851.944 151.826 851.825 156.635 849.677 160.74C846.337 166.956 840.73 170.358 833.333 170.358C828.561 170.358 824.028 168.95 821.641 167.895C820.329 169.068 817.943 170.944 816.273 172.117C821.403 174.463 826.652 175.753 831.663 175.753C843.116 175.753 851.586 169.537 854.807 163.32C858.267 156.517 858.028 144.788 849.081 134.819V134.819ZM788.476 151.356C788.595 154.875 791.578 157.69 795.157 157.69H795.396C799.094 157.573 801.957 154.523 801.838 150.887C801.719 147.368 798.736 144.553 795.157 144.553H794.918C794.68 144.553 794.321 144.553 794.083 144.67C789.192 136.695 787.164 128.015 787.88 118.632C788.357 111.594 790.743 105.495 794.918 100.451C798.378 96.1115 805.059 94.0002 809.592 93.8832C822.238 93.6485 827.606 109.131 827.964 115.348C829.515 115.699 832.14 116.521 833.93 117.107C832.498 98.1061 820.568 88.2534 809.115 88.2534C798.378 88.2534 788.476 95.8775 784.539 107.137C779.051 122.151 782.63 136.578 789.311 147.955C788.715 148.776 788.357 150.066 788.476 151.357V151.356Z" fill="#764ABC"/>
<g clip-path="url(#clip0_5_1745)">
<path d="M1071.59 117.769H1090.46V119.271H1073.32V130.578H1089.43V132.08H1073.32V144.494H1090.65V145.998H1071.59V117.769ZM1092.15 117.769H1094.15L1103.03 130.183L1112.11 117.769L1124.45 102L1104.17 131.488L1114.63 145.998H1112.54L1103.03 132.789L1093.48 145.994H1091.44L1101.97 131.484L1092.15 117.769ZM1115.37 119.271V117.769H1136.86V119.271H1126.96V145.996H1125.23V119.271H1115.36H1115.37ZM1048 117.769H1050.17L1079.97 162.46L1067.66 145.998L1049.81 119.903L1049.73 145.998H1048V117.769ZM1136.69 144.038C1136.56 144.041 1136.44 144.006 1136.33 143.938C1136.23 143.87 1136.15 143.773 1136.1 143.658C1136.05 143.543 1136.03 143.416 1136.06 143.293C1136.08 143.17 1136.14 143.056 1136.23 142.967C1136.31 142.878 1136.43 142.817 1136.55 142.792C1136.67 142.767 1136.8 142.779 1136.91 142.827C1137.03 142.874 1137.13 142.955 1137.2 143.059C1137.27 143.163 1137.31 143.286 1137.3 143.411C1137.31 143.493 1137.29 143.575 1137.26 143.651C1137.23 143.728 1137.19 143.797 1137.13 143.856C1137.07 143.914 1137 143.961 1136.93 143.992C1136.85 144.023 1136.77 144.039 1136.69 144.038V144.038ZM1138.39 142.384H1139.31C1139.31 142.501 1139.34 142.617 1139.38 142.724C1139.43 142.831 1139.5 142.927 1139.59 143.006C1139.67 143.085 1139.77 143.145 1139.88 143.183C1139.99 143.221 1140.11 143.235 1140.23 143.225C1140.83 143.225 1141.17 142.862 1141.17 142.183V137.881H1142.11V142.189C1142.11 143.413 1141.41 144.117 1140.24 144.117C1139.14 144.117 1138.39 143.434 1138.39 142.386V142.384ZM1143.34 142.331H1144.28C1144.36 142.907 1144.92 143.275 1145.73 143.275C1146.49 143.275 1147.04 142.88 1147.04 142.343C1147.04 141.879 1146.69 141.601 1145.89 141.411L1145.1 141.214C1144 140.956 1143.5 140.425 1143.5 139.529C1143.5 138.445 1144.38 137.723 1145.71 137.723C1146.94 137.723 1147.84 138.445 1147.9 139.469H1146.98C1146.89 138.909 1146.4 138.558 1145.69 138.558C1144.95 138.558 1144.46 138.917 1144.46 139.465C1144.46 139.9 1144.78 140.15 1145.56 140.336L1146.23 140.5C1147.48 140.79 1147.99 141.289 1147.99 142.213C1147.99 143.377 1147.09 144.107 1145.65 144.107C1144.31 144.107 1143.4 143.411 1143.34 142.321L1143.34 142.331Z" fill="white"/>
</g>
<defs>
<clipPath id="clip0_5_1745">
<rect width="100" height="60.4603" fill="white" transform="translate(1048 102)"/>
</clipPath>
</defs>
</svg>
